<mxfile host="app.diagrams.net" modified="2024-08-09T03:05:11.980Z" agent="Mozilla/5.0 (Windows NT 10.0; Win64; x64) AppleWebKit/537.36 (KHTML, like Gecko) Chrome/127.0.0.0 Safari/537.36" etag="X9Dp28mUuRre5GdtJP8z" version="24.5.3" type="device">
  <diagram name="Page-1" id="HpnYaWXFoASfQC-YOfz5">
    <mxGraphModel dx="880" dy="434" grid="1" gridSize="10" guides="1" tooltips="1" connect="1" arrows="1" fold="1" page="1" pageScale="1" pageWidth="850" pageHeight="1100" math="0" shadow="0">
      <root>
        <mxCell id="0" />
        <mxCell id="1" parent="0" />
        <mxCell id="6SL5aYRAFW-2bPOK82Xh-29" value="" style="group" vertex="1" connectable="0" parent="1">
          <mxGeometry x="130" y="40" width="290" height="220" as="geometry" />
        </mxCell>
        <mxCell id="6SL5aYRAFW-2bPOK82Xh-1" value="" style="shape=mxgraph.cisco.computers_and_peripherals.pc;html=1;pointerEvents=1;dashed=0;fillColor=#036897;strokeColor=#ffffff;strokeWidth=2;verticalLabelPosition=bottom;verticalAlign=top;align=center;outlineConnect=0;" vertex="1" parent="6SL5aYRAFW-2bPOK82Xh-29">
          <mxGeometry width="70" height="80" as="geometry" />
        </mxCell>
        <mxCell id="6SL5aYRAFW-2bPOK82Xh-4" value="" style="sketch=0;outlineConnect=0;fontColor=#232F3E;gradientColor=none;fillColor=#232F3D;strokeColor=none;dashed=0;verticalLabelPosition=bottom;verticalAlign=top;align=center;html=1;fontSize=12;fontStyle=0;aspect=fixed;pointerEvents=1;shape=mxgraph.aws4.servers;" vertex="1" parent="6SL5aYRAFW-2bPOK82Xh-29">
          <mxGeometry x="110" y="160" width="60" height="60" as="geometry" />
        </mxCell>
        <mxCell id="6SL5aYRAFW-2bPOK82Xh-6" value="" style="endArrow=none;html=1;rounded=0;strokeWidth=2;" edge="1" parent="6SL5aYRAFW-2bPOK82Xh-29" source="6SL5aYRAFW-2bPOK82Xh-4">
          <mxGeometry width="50" height="50" relative="1" as="geometry">
            <mxPoint x="140" y="150" as="sourcePoint" />
            <mxPoint x="140" y="80" as="targetPoint" />
          </mxGeometry>
        </mxCell>
        <mxCell id="6SL5aYRAFW-2bPOK82Xh-7" value="" style="endArrow=none;html=1;rounded=0;strokeWidth=2;exitX=0.75;exitY=0.04;exitDx=0;exitDy=0;exitPerimeter=0;" edge="1" parent="6SL5aYRAFW-2bPOK82Xh-29" source="6SL5aYRAFW-2bPOK82Xh-4">
          <mxGeometry width="50" height="50" relative="1" as="geometry">
            <mxPoint x="140" y="150" as="sourcePoint" />
            <mxPoint x="250" y="80" as="targetPoint" />
            <Array as="points">
              <mxPoint x="155" y="120" />
              <mxPoint x="250" y="120" />
            </Array>
          </mxGeometry>
        </mxCell>
        <mxCell id="6SL5aYRAFW-2bPOK82Xh-8" value="" style="endArrow=none;html=1;rounded=0;strokeWidth=2;exitX=0.275;exitY=0.065;exitDx=0;exitDy=0;exitPerimeter=0;" edge="1" parent="6SL5aYRAFW-2bPOK82Xh-29" source="6SL5aYRAFW-2bPOK82Xh-4">
          <mxGeometry width="50" height="50" relative="1" as="geometry">
            <mxPoint x="110" y="150" as="sourcePoint" />
            <mxPoint x="50" y="80" as="targetPoint" />
            <Array as="points">
              <mxPoint x="127" y="120" />
              <mxPoint x="50" y="120" />
            </Array>
          </mxGeometry>
        </mxCell>
        <mxCell id="6SL5aYRAFW-2bPOK82Xh-26" value="" style="shape=mxgraph.cisco.computers_and_peripherals.pc;html=1;pointerEvents=1;dashed=0;fillColor=#036897;strokeColor=#ffffff;strokeWidth=2;verticalLabelPosition=bottom;verticalAlign=top;align=center;outlineConnect=0;" vertex="1" parent="6SL5aYRAFW-2bPOK82Xh-29">
          <mxGeometry x="120" width="70" height="80" as="geometry" />
        </mxCell>
        <mxCell id="6SL5aYRAFW-2bPOK82Xh-27" value="" style="shape=mxgraph.cisco.computers_and_peripherals.pc;html=1;pointerEvents=1;dashed=0;fillColor=#036897;strokeColor=#ffffff;strokeWidth=2;verticalLabelPosition=bottom;verticalAlign=top;align=center;outlineConnect=0;" vertex="1" parent="6SL5aYRAFW-2bPOK82Xh-29">
          <mxGeometry x="220" width="70" height="80" as="geometry" />
        </mxCell>
        <mxCell id="6SL5aYRAFW-2bPOK82Xh-39" value="" style="group" vertex="1" connectable="0" parent="1">
          <mxGeometry x="550" y="40" width="290" height="220" as="geometry" />
        </mxCell>
        <mxCell id="6SL5aYRAFW-2bPOK82Xh-40" value="" style="shape=mxgraph.cisco.computers_and_peripherals.pc;html=1;pointerEvents=1;dashed=0;fillColor=#036897;strokeColor=#ffffff;strokeWidth=2;verticalLabelPosition=bottom;verticalAlign=top;align=center;outlineConnect=0;" vertex="1" parent="6SL5aYRAFW-2bPOK82Xh-39">
          <mxGeometry width="70" height="80" as="geometry" />
        </mxCell>
        <mxCell id="6SL5aYRAFW-2bPOK82Xh-41" value="" style="sketch=0;outlineConnect=0;fontColor=#232F3E;gradientColor=none;fillColor=#232F3D;strokeColor=none;dashed=0;verticalLabelPosition=bottom;verticalAlign=top;align=center;html=1;fontSize=12;fontStyle=0;aspect=fixed;pointerEvents=1;shape=mxgraph.aws4.servers;" vertex="1" parent="6SL5aYRAFW-2bPOK82Xh-39">
          <mxGeometry x="110" y="160" width="60" height="60" as="geometry" />
        </mxCell>
        <mxCell id="6SL5aYRAFW-2bPOK82Xh-42" value="" style="endArrow=none;html=1;rounded=0;strokeWidth=2;" edge="1" parent="6SL5aYRAFW-2bPOK82Xh-39" source="6SL5aYRAFW-2bPOK82Xh-41">
          <mxGeometry width="50" height="50" relative="1" as="geometry">
            <mxPoint x="140" y="150" as="sourcePoint" />
            <mxPoint x="140" y="80" as="targetPoint" />
          </mxGeometry>
        </mxCell>
        <mxCell id="6SL5aYRAFW-2bPOK82Xh-43" value="" style="endArrow=none;html=1;rounded=0;strokeWidth=2;exitX=0.75;exitY=0.04;exitDx=0;exitDy=0;exitPerimeter=0;" edge="1" parent="6SL5aYRAFW-2bPOK82Xh-39" source="6SL5aYRAFW-2bPOK82Xh-41">
          <mxGeometry width="50" height="50" relative="1" as="geometry">
            <mxPoint x="140" y="150" as="sourcePoint" />
            <mxPoint x="250" y="80" as="targetPoint" />
            <Array as="points">
              <mxPoint x="155" y="120" />
              <mxPoint x="250" y="120" />
            </Array>
          </mxGeometry>
        </mxCell>
        <mxCell id="6SL5aYRAFW-2bPOK82Xh-44" value="" style="endArrow=none;html=1;rounded=0;strokeWidth=2;exitX=0.275;exitY=0.065;exitDx=0;exitDy=0;exitPerimeter=0;" edge="1" parent="6SL5aYRAFW-2bPOK82Xh-39" source="6SL5aYRAFW-2bPOK82Xh-41">
          <mxGeometry width="50" height="50" relative="1" as="geometry">
            <mxPoint x="110" y="150" as="sourcePoint" />
            <mxPoint x="50" y="80" as="targetPoint" />
            <Array as="points">
              <mxPoint x="127" y="120" />
              <mxPoint x="50" y="120" />
            </Array>
          </mxGeometry>
        </mxCell>
        <mxCell id="6SL5aYRAFW-2bPOK82Xh-45" value="" style="shape=mxgraph.cisco.computers_and_peripherals.pc;html=1;pointerEvents=1;dashed=0;fillColor=#036897;strokeColor=#ffffff;strokeWidth=2;verticalLabelPosition=bottom;verticalAlign=top;align=center;outlineConnect=0;" vertex="1" parent="6SL5aYRAFW-2bPOK82Xh-39">
          <mxGeometry x="120" width="70" height="80" as="geometry" />
        </mxCell>
        <mxCell id="6SL5aYRAFW-2bPOK82Xh-46" value="" style="shape=mxgraph.cisco.computers_and_peripherals.pc;html=1;pointerEvents=1;dashed=0;fillColor=#036897;strokeColor=#ffffff;strokeWidth=2;verticalLabelPosition=bottom;verticalAlign=top;align=center;outlineConnect=0;" vertex="1" parent="6SL5aYRAFW-2bPOK82Xh-39">
          <mxGeometry x="220" width="70" height="80" as="geometry" />
        </mxCell>
        <mxCell id="6SL5aYRAFW-2bPOK82Xh-50" value="" style="endArrow=none;html=1;rounded=0;entryX=0;entryY=0.5;entryDx=0;entryDy=0;strokeWidth=2;" edge="1" parent="6SL5aYRAFW-2bPOK82Xh-39">
          <mxGeometry width="50" height="50" relative="1" as="geometry">
            <mxPoint x="-40" y="189.5" as="sourcePoint" />
            <mxPoint x="110" y="189.5" as="targetPoint" />
          </mxGeometry>
        </mxCell>
        <mxCell id="6SL5aYRAFW-2bPOK82Xh-48" value="" style="image;aspect=fixed;perimeter=ellipsePerimeter;html=1;align=center;shadow=0;dashed=0;spacingTop=3;image=img/lib/active_directory/internet_globe.svg;" vertex="1" parent="1">
          <mxGeometry x="450" y="200" width="60" height="60" as="geometry" />
        </mxCell>
        <mxCell id="6SL5aYRAFW-2bPOK82Xh-49" value="" style="endArrow=none;html=1;rounded=0;entryX=0;entryY=0.5;entryDx=0;entryDy=0;strokeWidth=2;" edge="1" parent="1" source="6SL5aYRAFW-2bPOK82Xh-4" target="6SL5aYRAFW-2bPOK82Xh-48">
          <mxGeometry width="50" height="50" relative="1" as="geometry">
            <mxPoint x="400" y="220" as="sourcePoint" />
            <mxPoint x="450" y="170" as="targetPoint" />
          </mxGeometry>
        </mxCell>
        <mxCell id="6SL5aYRAFW-2bPOK82Xh-51" value="&lt;font style=&quot;font-size: 14px;&quot; face=&quot;Times New Roman&quot;&gt;&lt;b&gt;Nodes&lt;/b&gt;&lt;/font&gt;" style="text;html=1;align=center;verticalAlign=middle;resizable=0;points=[];autosize=1;strokeColor=none;fillColor=none;" vertex="1" parent="1">
          <mxGeometry x="140" y="10" width="60" height="30" as="geometry" />
        </mxCell>
        <mxCell id="6SL5aYRAFW-2bPOK82Xh-52" value="&lt;font style=&quot;font-size: 14px;&quot; face=&quot;Times New Roman&quot;&gt;&lt;b&gt;Nodes&lt;/b&gt;&lt;/font&gt;" style="text;html=1;align=center;verticalAlign=middle;resizable=0;points=[];autosize=1;strokeColor=none;fillColor=none;" vertex="1" parent="1">
          <mxGeometry x="250" y="10" width="60" height="30" as="geometry" />
        </mxCell>
        <mxCell id="6SL5aYRAFW-2bPOK82Xh-53" value="&lt;font style=&quot;font-size: 14px;&quot; face=&quot;Times New Roman&quot;&gt;&lt;b&gt;Nodes&lt;/b&gt;&lt;/font&gt;" style="text;html=1;align=center;verticalAlign=middle;resizable=0;points=[];autosize=1;strokeColor=none;fillColor=none;" vertex="1" parent="1">
          <mxGeometry x="350" y="10" width="60" height="30" as="geometry" />
        </mxCell>
        <mxCell id="6SL5aYRAFW-2bPOK82Xh-54" value="&lt;font style=&quot;font-size: 14px;&quot; face=&quot;Times New Roman&quot;&gt;&lt;b&gt;Nodes&lt;/b&gt;&lt;/font&gt;" style="text;html=1;align=center;verticalAlign=middle;resizable=0;points=[];autosize=1;strokeColor=none;fillColor=none;" vertex="1" parent="1">
          <mxGeometry x="550" y="10" width="60" height="30" as="geometry" />
        </mxCell>
        <mxCell id="6SL5aYRAFW-2bPOK82Xh-55" value="&lt;font style=&quot;font-size: 14px;&quot; face=&quot;Times New Roman&quot;&gt;&lt;b&gt;Nodes&lt;/b&gt;&lt;/font&gt;" style="text;html=1;align=center;verticalAlign=middle;resizable=0;points=[];autosize=1;strokeColor=none;fillColor=none;" vertex="1" parent="1">
          <mxGeometry x="665" y="10" width="60" height="30" as="geometry" />
        </mxCell>
        <mxCell id="6SL5aYRAFW-2bPOK82Xh-56" value="&lt;font style=&quot;font-size: 14px;&quot; face=&quot;Times New Roman&quot;&gt;&lt;b&gt;Nodes&lt;/b&gt;&lt;/font&gt;" style="text;html=1;align=center;verticalAlign=middle;resizable=0;points=[];autosize=1;strokeColor=none;fillColor=none;" vertex="1" parent="1">
          <mxGeometry x="770" y="10" width="60" height="30" as="geometry" />
        </mxCell>
        <mxCell id="6SL5aYRAFW-2bPOK82Xh-57" value="&lt;font style=&quot;font-size: 14px;&quot; face=&quot;Times New Roman&quot;&gt;&lt;b&gt;Server&lt;/b&gt;&lt;/font&gt;" style="text;html=1;align=center;verticalAlign=middle;resizable=0;points=[];autosize=1;strokeColor=none;fillColor=none;" vertex="1" parent="1">
          <mxGeometry x="240" y="270" width="60" height="30" as="geometry" />
        </mxCell>
        <mxCell id="6SL5aYRAFW-2bPOK82Xh-58" value="&lt;font style=&quot;font-size: 14px;&quot; face=&quot;Times New Roman&quot;&gt;&lt;b&gt;Server&lt;/b&gt;&lt;/font&gt;" style="text;html=1;align=center;verticalAlign=middle;resizable=0;points=[];autosize=1;strokeColor=none;fillColor=none;" vertex="1" parent="1">
          <mxGeometry x="665" y="270" width="60" height="30" as="geometry" />
        </mxCell>
        <mxCell id="6SL5aYRAFW-2bPOK82Xh-59" value="&lt;font style=&quot;font-size: 14px;&quot; face=&quot;Times New Roman&quot;&gt;&lt;b&gt;Internet&lt;/b&gt;&lt;/font&gt;" style="text;html=1;align=center;verticalAlign=middle;resizable=0;points=[];autosize=1;strokeColor=none;fillColor=none;" vertex="1" parent="1">
          <mxGeometry x="445" y="270" width="70" height="30" as="geometry" />
        </mxCell>
      </root>
    </mxGraphModel>
  </diagram>
</mxfile>
